<svg width="19" height="19" viewBox="0 0 19 19" fill="none" xmlns="http://www.w3.org/2000/svg">
<path d="M18.5 9.25004V18.25C18.5 18.449 18.421 18.6397 18.2803 18.7804C18.1397 18.921 17.9489 19 17.75 19H12.5C12.3011 19 12.1103 18.921 11.9697 18.7804C11.829 18.6397 11.75 18.449 11.75 18.25V13.375C11.75 13.2756 11.7105 13.1802 11.6402 13.1099C11.5698 13.0395 11.4745 13 11.375 13H7.625C7.52554 13 7.43016 13.0395 7.35983 13.1099C7.28951 13.1802 7.25 13.2756 7.25 13.375V18.25C7.25 18.449 7.17098 18.6397 7.03033 18.7804C6.88968 18.921 6.69891 19 6.5 19H1.25C1.05109 19 0.860322 18.921 0.71967 18.7804C0.579018 18.6397 0.5 18.449 0.5 18.25V9.25004C0.500184 8.85228 0.65834 8.47089 0.939687 8.18973L8.43969 0.689725C8.72096 0.408633 9.10235 0.250732 9.5 0.250732C9.89765 0.250732 10.279 0.408633 10.5603 0.689725L18.0603 8.18973C18.3417 8.47089 18.4998 8.85228 18.5 9.25004Z" fill="#115740"/>
</svg>
