<svg width="18" height="18" viewBox="0 0 18 18" fill="none" xmlns="http://www.w3.org/2000/svg">
<path d="M9.75031 15.7527H5.99874C3.92681 15.7527 2.24718 14.0731 2.24718 12.0011V5.99863C2.24718 3.9267 3.92681 2.24707 5.99874 2.24707H12.0012C14.0732 2.24707 15.7528 3.9267 15.7528 5.99863V9.7502" stroke="#D1D1D6" stroke-width="1.5" stroke-linecap="round" stroke-linejoin="round"/>
<path d="M10.9102 7.0893C11.9649 8.14425 11.9647 9.85435 10.9098 10.9091C9.855 11.9638 8.1449 11.9638 7.09007 10.9091C6.03524 9.85435 6.03506 8.14425 7.08966 7.0893C7.59624 6.58255 8.28342 6.29785 8.99995 6.29785C9.71649 6.29785 10.4037 6.58255 10.9102 7.0893" stroke="#D1D1D6" stroke-width="1.5" stroke-linecap="round" stroke-linejoin="round"/>
<path d="M12.7515 14.6227H16.503" stroke="#D1D1D6" stroke-width="1.5" stroke-linecap="round" stroke-linejoin="round"/>
<path d="M14.6274 16.4981V12.7466" stroke="#D1D1D6" stroke-width="1.5" stroke-linecap="round" stroke-linejoin="round"/>
</svg>
