<svg width="24" height="24" viewBox="0 0 24 24" fill="none" xmlns="http://www.w3.org/2000/svg">
<path d="M13.9574 2.93885L13.956 2.93824C13.8912 2.91166 13.7839 2.88318 13.5455 2.86707C13.2997 2.85045 12.981 2.85 12.5 2.85C12.0189 2.85 11.7005 2.85045 11.4548 2.86706C11.2167 2.88316 11.1089 2.91161 11.0432 2.93855L11.0425 2.93885C10.9021 2.9962 10.7745 3.08075 10.6669 3.18762C10.5593 3.29449 10.474 3.42158 10.4157 3.56157L10.4142 3.56517L10.4142 3.56516C10.3823 3.64089 10.3497 3.7736 10.3355 4.12663C10.3236 4.54288 10.2066 4.94939 9.9954 5.30837L9.26278 4.87736L9.99539 5.30837C9.7831 5.66922 9.48256 5.97019 9.12201 6.183L9.11253 6.18859L9.10292 6.19394C8.73662 6.39755 8.32486 6.50541 7.90578 6.50753C7.4887 6.50965 7.07781 6.40696 6.7108 6.20894C6.40118 6.04615 6.26458 6.00568 6.17516 5.99375C5.86789 5.95388 5.55725 6.03646 5.31035 6.22368C5.25556 6.26545 5.17783 6.34256 5.04548 6.53809C4.9085 6.74045 4.74917 7.01359 4.50885 7.4271L4.50846 7.42778C4.26773 7.84112 4.10922 8.11451 4.0013 8.33318C3.89702 8.54448 3.86862 8.64973 3.85945 8.71764C3.81972 9.01724 3.90152 9.32146 4.08901 9.56359L4.09016 9.56507C4.14217 9.63254 4.24387 9.72835 4.54765 9.91833L4.09695 10.639M13.9574 2.93885L20.4523 14.0817C20.756 14.2717 20.8577 14.3675 20.9097 14.4349L20.91 14.4353C21.0024 14.555 21.0702 14.6917 21.1097 14.8376C21.1489 14.9828 21.1593 15.1343 21.1403 15.2836C21.1309 15.3515 21.1023 15.4568 20.9986 15.6668C20.8907 15.8855 20.7322 16.1589 20.4914 16.5722L20.491 16.5729C20.2507 16.9864 20.0914 17.2595 19.9544 17.4619C19.8218 17.6579 19.744 17.7349 19.6892 17.7766L19.6889 17.7768C19.4433 17.9639 19.1324 18.0469 18.8252 18.0063C18.7358 17.9945 18.5993 17.9542 18.2891 17.791C17.9221 17.593 17.5112 17.4904 17.0941 17.4925C16.675 17.4946 16.2633 17.6025 15.897 17.8061L15.8969 17.806L15.8874 17.8115C15.1269 18.2472 14.6948 19.0415 14.6646 19.8699C14.6504 20.2263 14.6178 20.3587 14.5857 20.4348L14.5842 20.4384C14.5259 20.5784 14.4406 20.7055 14.333 20.8124L14.9321 21.4154L14.333 20.8124C14.2254 20.9193 14.0978 21.0038 13.9574 21.0611L13.956 21.0618C13.8912 21.0883 13.7839 21.1168 13.5455 21.1329C13.2997 21.1495 12.981 21.15 12.5 21.15C12.0189 21.15 11.7002 21.1495 11.4544 21.1329C11.2161 21.1168 11.1087 21.0884 11.044 21.0618L10.7226 21.8439L11.0439 21.0618C10.7579 20.9442 10.5325 20.719 10.4157 20.4383L10.4142 20.4348C10.3821 20.3587 10.3494 20.2261 10.3353 19.8692M13.9574 2.93885C14.0978 2.9962 14.2254 3.08075 14.333 3.18762L14.9321 2.58465L14.333 3.18762C14.4406 3.29449 14.5259 3.42158 14.5842 3.56157L14.5842 3.56158L14.5857 3.56516C14.6177 3.64099 14.6502 3.77283 14.6644 4.12644C14.6762 4.54251 14.7929 4.94888 15.0038 5.3078C15.2159 5.66864 15.5161 5.96969 15.8764 6.18269L15.886 6.18837M13.9574 2.93885L15.886 6.18837M4.09695 10.639L4.54622 9.91744C5.2488 10.3549 5.72995 11.1216 5.72995 12C5.72995 12.8774 5.24975 13.6441 4.54819 14.081C4.2457 14.2706 4.14223 14.3669 4.08827 14.4361C3.99652 14.5555 3.92912 14.6918 3.8899 14.8372C3.8507 14.9825 3.8404 15.134 3.85958 15.2833C3.86888 15.3508 3.89758 15.4562 4.00138 15.6666C4.10929 15.8854 4.26787 16.1591 4.50846 16.5722C4.74945 16.986 4.90881 17.259 5.04591 17.4616C5.17831 17.6573 5.25618 17.7349 5.31177 17.7774C5.55602 17.9632 5.86644 18.0462 6.17515 18.0063C6.26455 17.9943 6.40112 17.9539 6.71069 17.7911C7.07785 17.5929 7.48897 17.4901 7.90628 17.4922C8.32565 17.4943 8.73769 17.6023 9.10418 17.8062L9.11532 17.8124L9.11528 17.8125C9.87378 18.2495 10.3039 19.0421 10.3353 19.8692M4.09695 10.639C4.57395 10.936 4.87995 11.442 4.87995 12C4.87995 12.558 4.57395 13.064 4.09795 13.36C3.77395 13.563 3.56495 13.724 3.41595 13.916L3.77395 7C3.30395 7.807 3.06995 8.21 3.01695 8.605C2.94695 9.131 3.09095 9.663 3.41695 10.084C3.56495 10.276 3.77395 10.437 4.09695 10.639ZM10.3353 19.8692C10.3353 19.8694 10.3353 19.8697 10.3353 19.87L9.48595 19.902L10.3353 19.8685C10.3353 19.8687 10.3353 19.8689 10.3353 19.8692ZM20.204 18.453C19.78 18.776 19.244 18.919 18.714 18.849C18.472 18.817 18.227 18.719 17.889 18.541C17.6463 18.4093 17.3744 18.3411 17.0984 18.3425C16.8224 18.3439 16.5512 18.4149 16.31 18.549C15.823 18.828 15.534 19.344 15.514 19.902C15.499 20.282 15.463 20.542 15.369 20.765L20.204 18.453ZM20.204 18.453C20.522 18.211 20.757 17.807 21.226 17L20.204 18.453ZM15.886 6.18837L15.8957 6.1938M15.886 6.18837L15.8957 6.1938M15.8957 6.1938C16.2622 6.39767 16.6743 6.50568 17.0936 6.50781C17.5109 6.50992 17.922 6.40712 18.2892 6.20889C18.5988 6.04615 18.7353 6.00568 18.8247 5.99375C19.1317 5.95391 19.442 6.0363 19.6888 6.22313C19.7444 6.26578 19.8221 6.34354 19.954 6.53838C20.0911 6.74097 20.2504 7.01398 20.4914 7.42778C20.732 7.84088 20.8906 8.11464 20.9985 8.3334C21.1023 8.54387 21.131 8.64923 21.1403 8.71679C21.1595 8.86601 21.1492 9.01755 21.11 9.16282C21.0708 9.30822 21.0034 9.44448 20.9116 9.56389C20.8577 9.63308 20.7542 9.72949 20.4514 9.91926L15.8957 6.1938ZM8.69095 18.549L8.69096 18.549L8.69095 18.549ZM12.5 15.85C14.6333 15.85 16.373 14.1325 16.373 12C16.373 9.86732 14.6321 8.15 12.5 8.15C10.3678 8.15 8.62695 9.86732 8.62695 12C8.62695 14.1327 10.3678 15.85 12.5 15.85Z" stroke="#A5A5A5" stroke-width="1.7"/>
</svg>
